<svg version="1.1" id="Layer_1" xmlns="http://www.w3.org/2000/svg" xmlns:xlink="http://www.w3.org/1999/xlink" x="0px" y="0px"
	 width="100%" viewBox="210 135 600 600" enable-background="new 300 180 400 480" xml:space="preserve">
<path fill="#000000" opacity="1.000000" stroke="none" 
	d="
M507.679016,633.758789 
	C484.728058,647.358337 461.953094,660.542053 439.471100,674.207581 
	C405.766968,694.694397 366.854065,674.473389 360.024109,637.347717 
	C358.592224,629.564392 358.882172,621.410828 358.873810,613.427368 
	C358.792725,535.939514 358.817169,458.451508 358.811951,380.963531 
	C358.811920,380.463623 358.713379,379.936066 358.836884,379.467865 
	C361.488953,369.415039 358.178925,360.808929 353.753571,351.758331 
	C343.139801,330.051270 338.545654,306.583588 335.476318,282.721497 
	C333.982819,271.110626 333.468719,259.539490 333.681763,247.891907 
	C333.779755,242.533371 334.757782,237.296799 336.901947,232.363220 
	C339.395325,226.626205 343.862396,224.580017 349.913971,226.290298 
	C358.448975,228.702438 365.242401,234.215866 372.349121,239.120667 
	C380.877197,245.006485 388.424469,252.079605 395.835052,259.279388 
	C398.120789,261.500092 400.219238,262.289001 403.375977,260.840790 
	C418.127808,254.073181 433.667847,250.852966 449.894562,251.707886 
	C454.765259,251.964493 457.071625,250.038437 458.693909,245.686279 
	C464.364471,230.473434 471.752533,216.161240 481.895905,203.372864 
	C490.748962,192.211243 499.859222,192.460480 507.907501,204.409058 
	C516.222168,216.753174 520.160461,230.933167 524.000671,245.057449 
	C529.378357,264.836426 532.661499,285.040039 532.871887,305.523254 
	C533.070007,324.816895 529.528503,343.600403 520.823303,361.048889 
	C519.035706,364.631836 519.673035,366.172638 522.969727,368.084167 
	C558.556641,388.718597 594.078979,409.464508 629.564697,430.272736 
	C632.573120,432.036804 634.585510,431.855621 636.800842,429.088531 
	C648.295959,414.730164 648.897217,398.993744 642.642456,382.520477 
	C638.318176,371.131592 631.002869,361.579102 622.695129,352.851471 
	C614.656982,344.407013 606.034424,336.516235 598.053772,328.020386 
	C585.527344,314.685272 577.299744,298.845886 575.006836,280.730469 
	C570.115601,242.086411 592.248657,212.162674 628.600647,207.040756 
	C658.362793,202.847336 686.370544,220.967026 692.720764,247.534882 
	C697.073853,265.747406 689.506470,285.598999 674.066162,294.893494 
	C668.749573,298.093903 663.072510,299.702393 656.928894,297.338409 
	C651.400024,295.210938 648.665161,291.240295 648.663391,285.546722 
	C648.661621,279.886322 651.849121,274.886444 656.752380,272.858246 
	C666.202332,268.949341 669.482971,261.453674 665.575317,251.967087 
	C661.475098,242.012878 653.407410,236.546341 643.270142,234.602554 
	C620.484253,230.233429 598.777588,249.675644 600.423828,272.818542 
	C601.387329,286.363190 608.190674,297.412109 616.622437,307.533447 
	C627.192322,320.221344 640.048645,330.740845 650.720947,343.361420 
	C661.675781,356.316132 669.937500,370.508575 672.498779,387.537018 
	C675.194763,405.461334 673.059448,422.663086 664.566162,438.870056 
	C664.102600,439.754608 663.752563,440.728271 663.149536,441.505096 
	C659.863342,445.738861 660.880920,448.157684 665.467834,451.146729 
	C680.277405,460.797424 687.626770,474.768829 688.434509,492.567841 
	C689.507263,516.205933 679.204712,533.128723 659.233887,544.835205 
	C617.282898,569.426025 575.334900,594.022034 533.388367,618.620483 
	C524.914856,623.589478 516.453186,628.578613 507.679016,633.758789 
M460.347626,563.777466 
	C491.329803,545.506348 522.303040,527.220093 553.299377,508.972992 
	C562.997070,503.264130 567.846863,492.267609 553.259583,484.087189 
	C537.286926,475.129852 521.631348,465.605682 505.867279,456.278198 
	C487.236755,445.254669 468.640686,434.172943 450.024353,423.125366 
	C442.965881,418.936676 437.244385,419.829437 432.306244,425.719238 
	C429.411621,429.171692 429.052795,433.208099 429.064941,437.453552 
	C429.175415,476.103210 429.243042,514.752991 429.324554,553.402771 
	C429.328766,555.401794 429.251556,557.406677 429.373352,559.398926 
	C429.944183,568.735291 439.636353,574.788330 448.030579,570.849182 
	C452.082275,568.947876 455.828156,566.394897 460.347626,563.777466 
M382.604462,322.942444 
	C379.154205,325.022614 380.347565,327.589661 381.837738,330.195618 
	C391.856506,347.716034 414.870605,348.753845 426.477448,332.186768 
	C427.582550,330.609436 429.411133,328.915131 427.968475,326.867401 
	C426.158936,324.298920 423.226501,323.170227 420.205353,322.920624 
	C417.688232,322.712677 417.841125,325.217316 417.199951,326.813263 
	C414.993561,332.305054 410.477692,335.451874 404.957397,335.340393 
	C399.569580,335.231567 395.576843,332.193909 393.484802,326.611938 
	C391.137695,320.349426 390.272369,320.005768 382.604462,322.942444 
M455.186462,318.653137 
	C453.887054,319.657776 452.398804,320.482758 451.798889,322.140778 
	C457.540741,329.901581 468.968994,332.611389 478.714935,328.556824 
	C489.482147,324.077332 498.048218,311.922913 496.554047,303.189178 
	C496.086975,300.458984 494.741730,299.207214 491.671814,299.810669 
	C484.902344,301.141296 484.433289,301.568787 484.546600,308.620667 
	C484.646057,314.811340 481.209991,320.001129 475.826477,321.791473 
	C470.912933,323.425507 466.579803,321.587158 462.692596,316.246796 
	C462.322388,315.738159 461.836487,315.313751 461.456055,314.905762 
	C458.973602,315.329407 457.609924,317.201233 455.186462,318.653137 
M426.121002,371.579102 
	C435.394989,375.140686 440.774658,369.673126 445.645508,362.752228 
	C451.373199,366.614838 457.179962,368.699524 463.223419,364.057098 
	C466.190704,361.777649 468.736755,359.110931 468.493988,354.309906 
	C465.864105,355.349091 463.951965,356.446594 461.904327,356.841461 
	C457.845154,357.624176 453.320984,358.682587 449.874573,356.005249 
	C446.969513,353.748505 450.176239,350.546234 450.362976,347.739960 
	C450.384766,347.412262 450.519897,347.090729 450.531006,346.763885 
	C450.589020,345.056793 449.672760,344.106079 448.074829,344.578644 
	C444.042267,345.771149 439.568909,345.833496 436.067108,348.789703 
	C436.375488,349.431427 436.500732,349.933197 436.802094,350.283447 
	C442.526428,356.936890 441.960205,359.379059 433.810760,363.426910 
	C431.074982,364.785797 428.243347,365.423370 425.173828,365.421143 
	C423.513245,365.419952 421.540771,364.470795 420.007904,366.483398 
	C420.982086,369.030243 423.258575,370.092621 426.121002,371.579102 
z"/>
</svg>