<?xml version="1.0" standalone="no"?><!DOCTYPE svg PUBLIC "-//W3C//DTD SVG 1.1//EN" "http://www.w3.org/Graphics/SVG/1.1/DTD/svg11.dtd"><svg height="1024" node-id="1" sillyvg="true" template-height="1024" template-width="1024" version="1.1" viewBox="0 0 1024 1024" width="1024" xmlns="http://www.w3.org/2000/svg" xmlns:xlink="http://www.w3.org/1999/xlink"><defs node-id="32"><linearGradient gradientUnits="objectBoundingBox" id="linear-gradient" node-id="3" spreadMethod="pad" x1="0.5" x2="0.5" y1="0" y2="1"><stop offset="0" stop-color="#e1e1e1"></stop><stop offset="1" stop-color="#ffffff" stop-opacity="0"></stop></linearGradient><linearGradient gradientUnits="objectBoundingBox" id="linearGradient1" node-id="40" spreadMethod="pad" x1="0.5" x2="0.5" y1="0" y2="1"><stop offset="0" stop-color="#e2e2e2"></stop><stop offset="1" stop-color="#bcbcbc"></stop></linearGradient><linearGradient gradientUnits="objectBoundingBox" id="linearGradient2" node-id="47" spreadMethod="pad" x1="0.5" x2="0.5" y1="0" y2="1"><stop offset="0" stop-color="#e2e2e2"></stop><stop offset="1" stop-color="#bcbcbc"></stop></linearGradient><linearGradient gradientUnits="objectBoundingBox" id="linear-gradient-2" node-id="6" spreadMethod="pad" x1="0.5" x2="0.5" y1="0" y2="1"><stop offset="0" stop-color="#e2e2e2"></stop><stop offset="1" stop-color="#bcbcbc"></stop></linearGradient><clipPath id="clip-没有找到相关结果" node-id="9"><path d="M 0.00 0.00 L 1024.00 0.00 L 1024.00 1024.00 L 0.00 1024.00 Z" fill="#000000" fill-rule="nonzero" node-id="61" stroke="none" target-height="1024" target-width="1024" target-x="0" target-y="0"></path></clipPath></defs><g clip-path="url(#clip-没有找到相关结果)" id="没有找到相关结果" node-id="11"><path d="M 0.00 -0.40 L 1024.00 -0.40 L 1024.00 1023.60 L 0.00 1023.60 Z" fill="#ffffff" fill-opacity="0" fill-rule="nonzero" node-id="66" stroke="none" target-height="1024" target-width="1024" target-x="0" target-y="-0.4000244"></path><path d="M 1024.00 797.70 L 1023.70 805.10 L 1022.90 812.50 L 1021.50 819.80 L 1019.60 827.20 L 1017.10 834.60 L 1014.10 842.00 L 1010.60 848.90 L 1006.70 855.90 L 1002.20 863.00 L 997.10 870.00 L 991.40 877.00 L 985.00 884.10 L 977.30 891.90 L 968.80 899.70 L 959.40 907.50 L 949.20 915.30 L 938.00 923.00 L 926.90 930.10 L 915.00 937.00 L 902.30 943.90 L 888.60 950.70 L 874.00 957.40 L 859.60 963.50 L 844.60 969.40 L 828.90 975.10 L 812.60 980.60 L 796.30 985.60 L 762.10 994.80 L 744.20 999.00 L 708.20 1006.40 L 670.40 1012.50 L 632.10 1017.30 L 612.50 1019.20 L 592.60 1020.80 L 566.00 1022.30 L 539.20 1023.30 L 512.00 1023.60 L 484.80 1023.30 L 458.00 1022.30 L 431.40 1020.80 L 411.50 1019.20 L 391.90 1017.30 L 353.60 1012.50 L 315.80 1006.40 L 279.80 999.00 L 261.90 994.80 L 227.70 985.60 L 211.40 980.60 L 195.10 975.10 L 179.40 969.40 L 164.40 963.50 L 150.00 957.40 L 135.40 950.70 L 121.70 943.90 L 109.00 937.00 L 97.10 930.10 L 86.00 923.00 L 74.80 915.30 L 64.60 907.50 L 55.20 899.70 L 46.70 891.90 L 39.00 884.10 L 32.60 877.00 L 26.90 870.00 L 21.80 863.00 L 17.30 855.90 L 13.40 848.90 L 9.90 842.00 L 6.90 834.60 L 4.40 827.20 L 2.50 819.80 L 1.10 812.50 L 0.30 805.10 L 0.00 797.70 L 0.30 790.20 L 1.10 782.90 L 2.50 775.50 L 4.40 768.20 L 6.90 760.80 L 9.90 753.40 L 13.40 746.40 L 17.30 739.40 L 21.80 732.40 L 26.90 725.40 L 32.60 718.30 L 39.00 711.20 L 46.70 703.40 L 55.20 695.60 L 64.60 687.80 L 74.80 680.10 L 86.00 672.30 L 97.10 665.30 L 109.00 658.30 L 121.70 651.40 L 135.40 644.60 L 150.00 637.90 L 164.40 631.80 L 179.40 625.90 L 195.10 620.20 L 211.40 614.80 L 227.70 609.80 L 261.90 600.50 L 279.80 596.30 L 315.80 589.00 L 353.60 582.80 L 391.90 578.10 L 411.50 576.10 L 431.40 574.60 L 458.00 573.00 L 484.80 572.10 L 512.00 571.80 L 539.20 572.10 L 566.00 573.00 L 592.60 574.60 L 612.50 576.10 L 632.10 578.10 L 670.40 582.80 L 708.20 589.00 L 744.20 596.30 L 762.10 600.50 L 796.30 609.80 L 812.60 614.80 L 828.90 620.20 L 844.60 625.90 L 859.60 631.80 L 874.00 637.90 L 888.60 644.60 L 902.30 651.40 L 915.00 658.30 L 926.90 665.30 L 938.00 672.30 L 949.20 680.10 L 959.40 687.80 L 968.80 695.60 L 977.30 703.40 L 985.00 711.20 L 991.40 718.30 L 997.10 725.40 L 1002.20 732.40 L 1006.70 739.40 L 1010.60 746.40 L 1014.10 753.40 L 1017.10 760.80 L 1019.60 768.20 L 1021.50 775.50 L 1022.90 782.90 L 1023.70 790.20 L 1024.00 797.70 Z" fill="url(#linear-gradient)" fill-rule="nonzero" group-id="1,2" id="椭圆_1" node-id="14" stroke="none" target-height="451.8" target-width="1024" target-x="0" target-y="571.8"></path><path d="M 211.20 603.80 L 219.20 603.80 L 219.20 670.70 L 211.20 670.70 Z" fill="#c5c5c5" fill-rule="nonzero" group-id="1,3,11" id="矩形_4" node-id="16" stroke="none" target-height="66.900024" target-width="8" target-x="211.2" target-y="603.8"></path><path d="M 215.50 496.40 L 223.80 506.30 L 232.10 516.80 L 241.10 529.30 L 249.40 542.70 L 252.80 549.40 L 255.40 555.60 L 256.70 559.80 L 257.50 563.50 L 257.70 566.90 L 257.50 571.30 L 256.90 575.40 L 255.80 579.50 L 254.40 583.30 L 252.60 587.00 L 248.10 593.70 L 242.30 599.50 L 239.10 601.90 L 231.90 605.80 L 228.10 607.20 L 224.00 608.30 L 219.90 608.90 L 215.50 609.10 L 211.10 608.90 L 206.90 608.30 L 202.90 607.20 L 199.00 605.80 L 195.30 604.00 L 188.60 599.50 L 182.80 593.70 L 180.40 590.50 L 176.50 583.30 L 175.10 579.50 L 174.10 575.40 L 173.40 571.30 L 173.20 566.90 L 173.50 563.50 L 174.20 559.80 L 175.50 555.60 L 178.10 549.40 L 181.60 542.70 L 185.50 536.00 L 194.40 522.80 L 207.10 506.30 L 215.50 496.40 Z" fill="url(#linearGradient1)" fill-rule="nonzero" group-id="1,3,12" id="路径_3" node-id="17" stroke="none" target-height="112.69998" target-width="84.500015" target-x="173.2" target-y="496.4"></path><path d="M 799.40 633.20 L 807.40 633.20 L 807.40 689.40 L 799.40 689.40 Z" fill="#c5c5c5" fill-rule="nonzero" group-id="1,4,13" id="矩形_4-2" node-id="19" stroke="none" target-height="56.200012" target-width="8" target-x="799.4" target-y="633.2"></path><path d="M 804.60 542.00 L 811.70 550.40 L 818.80 559.40 L 826.50 570.10 L 833.50 581.50 L 836.50 587.30 L 838.70 592.60 L 839.80 596.10 L 840.70 602.20 L 839.90 609.50 L 837.80 616.20 L 835.70 620.40 L 833.20 624.20 L 830.10 627.70 L 826.60 630.70 L 822.80 633.30 L 818.60 635.40 L 811.90 637.50 L 808.30 638.10 L 804.60 638.30 L 797.30 637.50 L 790.50 635.40 L 786.30 633.30 L 782.50 630.70 L 779.10 627.70 L 776.00 624.20 L 773.40 620.40 L 771.30 616.20 L 770.10 612.90 L 768.70 605.90 L 768.50 602.20 L 768.70 599.30 L 770.50 592.60 L 772.70 587.30 L 779.00 575.80 L 786.60 564.60 L 797.40 550.40 L 804.60 542.00 Z" fill="url(#linearGradient2)" fill-rule="nonzero" group-id="1,4,14" id="路径_3-2" node-id="20" stroke="none" target-height="96.29999" target-width="72.20001" target-x="768.5" target-y="542"></path><path d="M 881.10 677.40 L 886.40 677.40 L 886.40 709.20 L 881.10 709.20 Z" fill="#c5c5c5" fill-rule="nonzero" group-id="1,5,15" id="矩形_4-3" node-id="22" stroke="none" target-height="31.799988" target-width="5.300049" target-x="881.1" target-y="677.4"></path><path d="M 884.60 625.50 L 889.80 631.80 L 897.30 641.90 L 901.80 649.40 L 904.30 655.40 L 904.90 659.40 L 904.60 663.10 L 903.60 666.60 L 902.10 669.70 L 900.10 672.60 L 897.70 675.00 L 894.80 677.00 L 891.70 678.50 L 888.30 679.40 L 884.60 679.80 L 880.80 679.40 L 877.40 678.50 L 874.30 677.00 L 871.40 675.00 L 869.00 672.60 L 867.00 669.70 L 865.50 666.60 L 864.50 663.10 L 864.20 659.40 L 864.40 657.50 L 865.70 653.00 L 867.30 649.40 L 869.50 645.60 L 874.40 638.20 L 884.60 625.50 Z" fill="url(#linear-gradient-2)" fill-rule="nonzero" group-id="1,5,16" id="路径_3-3" node-id="23" stroke="none" target-height="54.299988" target-width="40.700012" target-x="864.2" target-y="625.5"></path><path d="M 640.30 656.50 L 329.10 656.40 L 322.00 654.90 L 315.20 652.10 L 312.10 650.30 L 306.40 645.60 L 301.70 639.90 L 299.80 636.80 L 297.00 630.00 L 295.60 622.80 L 295.40 619.10 L 295.60 249.10 L 297.00 241.90 L 299.80 235.20 L 303.90 229.10 L 306.40 226.40 L 309.20 223.80 L 315.20 219.80 L 322.00 217.00 L 329.10 215.60 L 640.30 215.40 L 647.70 216.10 L 651.20 217.00 L 658.00 219.80 L 664.00 223.80 L 666.80 226.40 L 671.50 232.10 L 673.40 235.20 L 676.20 241.90 L 677.60 249.10 L 677.80 252.80 L 677.60 622.80 L 676.20 630.00 L 673.40 636.80 L 669.30 642.80 L 664.00 648.10 L 658.00 652.10 L 651.20 654.90 L 644.10 656.40 L 640.30 656.50 Z M 363.60 493.50 L 360.40 493.80 L 357.50 494.50 L 354.80 495.80 L 352.40 497.60 L 350.30 499.60 L 348.60 502.10 L 347.30 504.80 L 346.50 507.70 L 346.20 510.80 L 346.50 514.00 L 347.30 516.90 L 348.60 519.60 L 350.30 522.00 L 352.40 524.10 L 354.80 525.80 L 357.50 527.10 L 360.40 527.90 L 363.60 528.20 L 609.60 528.20 L 612.80 527.90 L 615.70 527.10 L 618.40 525.80 L 620.80 524.10 L 622.90 522.00 L 624.60 519.60 L 625.90 516.90 L 626.70 514.00 L 627.00 510.80 L 626.70 507.70 L 625.90 504.80 L 624.60 502.10 L 622.90 499.60 L 620.80 497.60 L 618.40 495.80 L 615.70 494.50 L 612.80 493.70 L 609.60 493.50 Z M 363.60 389.20 L 360.40 389.50 L 357.50 390.30 L 354.80 391.60 L 352.40 393.30 L 350.30 395.40 L 348.60 397.80 L 347.30 400.50 L 346.50 403.40 L 346.20 406.60 L 346.50 409.70 L 347.30 412.60 L 348.60 415.30 L 350.30 417.80 L 352.40 419.80 L 354.80 421.60 L 357.50 422.80 L 360.40 423.60 L 363.60 423.90 L 609.60 423.90 L 612.80 423.60 L 615.70 422.80 L 618.40 421.60 L 620.80 419.80 L 622.90 417.80 L 624.60 415.30 L 625.90 412.60 L 626.70 409.70 L 627.00 406.60 L 626.70 403.40 L 625.90 400.50 L 624.60 397.80 L 622.90 395.40 L 620.80 393.30 L 618.40 391.60 L 615.70 390.30 L 612.80 389.50 L 609.60 389.20 Z M 363.60 284.90 L 360.40 285.20 L 357.50 286.00 L 354.80 287.30 L 352.40 289.00 L 350.30 291.10 L 348.60 293.50 L 347.30 296.20 L 346.50 299.10 L 346.20 302.30 L 346.50 305.50 L 347.30 308.40 L 348.60 311.10 L 350.30 313.50 L 352.40 315.60 L 354.80 317.30 L 357.50 318.60 L 360.40 319.40 L 363.60 319.70 L 609.60 319.70 L 612.80 319.40 L 615.70 318.60 L 618.40 317.30 L 620.80 315.60 L 622.90 313.50 L 624.60 311.10 L 625.90 308.40 L 626.70 305.50 L 627.00 302.30 L 626.70 299.10 L 625.90 296.20 L 624.60 293.50 L 622.90 291.10 L 620.80 289.00 L 618.40 287.30 L 615.70 286.00 L 612.80 285.20 L 609.60 284.90 Z" fill="#d1d1d1" fill-rule="nonzero" group-id="1,6" id="减去_13" node-id="24" stroke="none" target-height="441.1" target-width="382.4" target-x="295.4" target-y="215.4"></path><path d="M 565.70 572.70 L 590.80 547.90 L 593.90 546.50 L 597.30 546.20 L 600.60 547.00 L 602.10 547.90 L 761.40 707.00 L 763.50 709.90 L 764.30 713.20 L 764.00 716.60 L 762.60 719.70 L 736.30 745.90 L 734.80 746.80 L 731.50 747.70 L 728.10 747.40 L 725.00 745.90 L 565.70 586.90 L 563.70 584.00 L 562.80 580.60 L 563.10 577.30 L 563.70 575.70 L 565.70 572.70 Z" fill="#bfbfbf" fill-rule="nonzero" group-id="1,7" id="矩形_39" node-id="25" stroke="none" target-height="201.5" target-width="201.5" target-x="562.8" target-y="546.2"></path><path d="M 736.60 579.00 L 736.40 586.90 L 735.70 594.60 L 734.70 602.10 L 733.30 609.40 L 731.50 616.70 L 728.70 625.60 L 725.40 634.20 L 721.60 642.50 L 717.20 650.50 L 712.40 658.30 L 707.10 665.60 L 701.30 672.60 L 695.10 679.20 L 688.50 685.40 L 681.50 691.20 L 674.10 696.50 L 666.40 701.40 L 658.40 705.70 L 650.10 709.60 L 641.50 712.90 L 632.60 715.60 L 625.30 717.40 L 618.00 718.80 L 610.40 719.90 L 602.70 720.50 L 594.90 720.70 L 587.00 720.50 L 579.30 719.90 L 571.80 718.80 L 564.40 717.40 L 557.20 715.60 L 548.30 712.90 L 539.70 709.60 L 531.40 705.70 L 523.40 701.40 L 515.60 696.50 L 508.30 691.20 L 501.30 685.40 L 494.70 679.20 L 488.50 672.60 L 482.70 665.60 L 477.40 658.30 L 472.50 650.50 L 468.20 642.50 L 464.30 634.20 L 461.00 625.60 L 458.20 616.70 L 456.40 609.40 L 455.00 602.10 L 454.00 594.60 L 453.40 586.90 L 453.20 579.00 L 453.40 571.10 L 454.00 563.50 L 455.00 555.90 L 456.40 548.60 L 458.20 541.30 L 461.00 532.40 L 464.30 523.80 L 468.20 515.50 L 472.50 507.50 L 477.40 499.80 L 482.70 492.40 L 488.50 485.40 L 494.70 478.80 L 501.30 472.60 L 508.30 466.80 L 515.60 461.50 L 523.40 456.60 L 531.40 452.30 L 539.70 448.50 L 548.30 445.10 L 557.20 442.40 L 564.40 440.60 L 571.80 439.20 L 579.30 438.20 L 587.00 437.50 L 594.90 437.30 L 602.70 437.50 L 610.40 438.20 L 618.00 439.20 L 625.30 440.60 L 632.60 442.40 L 641.50 445.10 L 650.10 448.50 L 658.40 452.30 L 666.40 456.60 L 674.10 461.50 L 681.50 466.80 L 688.50 472.60 L 695.10 478.80 L 701.30 485.40 L 707.10 492.40 L 712.40 499.80 L 717.20 507.50 L 721.60 515.50 L 725.40 523.80 L 728.70 532.40 L 731.50 541.30 L 733.30 548.60 L 734.70 555.90 L 735.70 563.50 L 736.40 571.10 L 736.60 579.00 Z" fill="#ffffff" fill-opacity="0.46" fill-rule="nonzero" group-id="1,8" id="椭圆_27" node-id="26" stroke="none" target-height="283.40002" target-width="283.39996" target-x="453.2" target-y="437.3"></path><path d="M 736.60 579.00 L 736.40 586.90 L 735.70 594.60 L 734.70 602.10 L 733.30 609.40 L 731.50 616.70 L 728.70 625.60 L 725.40 634.20 L 721.60 642.50 L 717.20 650.50 L 712.40 658.30 L 707.10 665.60 L 701.30 672.60 L 695.10 679.20 L 688.50 685.40 L 681.50 691.20 L 674.10 696.50 L 666.40 701.40 L 658.40 705.70 L 650.10 709.60 L 641.50 712.90 L 632.60 715.60 L 625.30 717.40 L 618.00 718.80 L 610.40 719.90 L 602.70 720.50 L 594.90 720.70 L 587.00 720.50 L 579.30 719.90 L 571.80 718.80 L 564.40 717.40 L 557.20 715.60 L 548.30 712.90 L 539.70 709.60 L 531.40 705.70 L 523.40 701.40 L 515.60 696.50 L 508.30 691.20 L 501.30 685.40 L 494.70 679.20 L 488.50 672.60 L 482.70 665.60 L 477.40 658.30 L 472.50 650.50 L 468.20 642.50 L 464.30 634.20 L 461.00 625.60 L 458.20 616.70 L 456.40 609.40 L 455.00 602.10 L 454.00 594.60 L 453.40 586.90 L 453.20 579.00 L 453.40 571.10 L 454.00 563.50 L 455.00 555.90 L 456.40 548.60 L 458.20 541.30 L 461.00 532.40 L 464.30 523.80 L 468.20 515.50 L 472.50 507.50 L 477.40 499.80 L 482.70 492.40 L 488.50 485.40 L 494.70 478.80 L 501.30 472.60 L 508.30 466.80 L 515.60 461.50 L 523.40 456.60 L 531.40 452.30 L 539.70 448.50 L 548.30 445.10 L 557.20 442.40 L 564.40 440.60 L 571.80 439.20 L 579.30 438.20 L 587.00 437.50 L 594.90 437.30 L 602.70 437.50 L 610.40 438.20 L 618.00 439.20 L 625.30 440.60 L 632.60 442.40 L 641.50 445.10 L 650.10 448.50 L 658.40 452.30 L 666.40 456.60 L 674.10 461.50 L 681.50 466.80 L 688.50 472.60 L 695.10 478.80 L 701.30 485.40 L 707.10 492.40 L 712.40 499.80 L 717.20 507.50 L 721.60 515.50 L 725.40 523.80 L 728.70 532.40 L 731.50 541.30 L 733.30 548.60 L 734.70 555.90 L 735.70 563.50 L 736.40 571.10 L 736.60 579.00 Z" fill="none" group-id="1,9" node-id="116" stroke="none" target-height="283.40002" target-width="283.39996" target-x="453.2" target-y="437.3"></path><path d="M 736.10 579.00 L 735.70 588.80 L 734.80 598.30 L 733.20 607.50 L 731.00 616.50 L 728.30 625.40 L 725.00 634.00 L 721.20 642.30 L 716.80 650.30 L 711.90 658.00 L 706.70 665.30 L 700.90 672.30 L 694.70 678.80 L 688.10 685.00 L 681.20 690.80 L 673.90 696.10 L 666.10 700.90 L 658.20 705.30 L 649.90 709.10 L 641.30 712.40 L 632.40 715.20 L 623.40 717.30 L 614.10 718.90 L 604.70 719.90 L 594.90 720.20 L 585.10 719.90 L 575.60 718.90 L 566.40 717.30 L 557.30 715.20 L 548.40 712.40 L 539.90 709.10 L 531.60 705.30 L 523.60 700.90 L 515.90 696.10 L 508.60 690.80 L 501.60 685.00 L 495.00 678.80 L 488.80 672.30 L 483.10 665.30 L 477.80 658.00 L 473.00 650.30 L 468.60 642.30 L 464.80 634.00 L 461.50 625.40 L 458.70 616.50 L 456.60 607.50 L 455.00 598.30 L 454.00 588.80 L 453.70 579.00 L 454.00 569.20 L 455.00 559.70 L 456.60 550.50 L 458.70 541.50 L 461.50 532.60 L 464.80 524.00 L 468.60 515.70 L 473.00 507.70 L 477.80 500.00 L 483.10 492.70 L 488.80 485.80 L 495.00 479.20 L 501.60 473.00 L 508.60 467.20 L 515.90 461.90 L 523.60 457.10 L 531.60 452.70 L 539.90 448.90 L 548.40 445.60 L 557.30 442.80 L 566.40 440.70 L 575.60 439.10 L 585.10 438.10 L 594.90 437.80 L 604.70 438.10 L 614.10 439.10 L 623.40 440.70 L 632.40 442.80 L 641.30 445.60 L 649.90 448.90 L 658.20 452.70 L 666.10 457.10 L 673.90 461.90 L 681.20 467.20 L 688.10 473.00 L 694.70 479.20 L 700.90 485.80 L 706.70 492.70 L 711.90 500.00 L 716.80 507.70 L 721.20 515.70 L 725.00 524.00 L 728.30 532.60 L 731.00 541.50 L 733.20 550.50 L 734.80 559.70 L 735.70 569.20 L 736.10 579.00 Z" fill="none" group-id="1,9" node-id="118" stroke="#a4a4a4" stroke-linecap="butt" stroke-opacity="0.46" stroke-width="1" target-height="282.40002" target-width="282.39996" target-x="453.7" target-y="437.8"></path><path d="M 653.70 579.00 L 652.90 588.60 L 650.70 597.60 L 648.50 603.30 L 645.70 608.70 L 642.40 613.70 L 638.50 618.40 L 634.30 622.70 L 629.60 626.50 L 624.60 629.80 L 619.20 632.60 L 613.50 634.80 L 609.00 636.10 L 599.80 637.60 L 594.90 637.80 L 585.30 637.00 L 576.30 634.80 L 570.60 632.60 L 565.20 629.80 L 560.10 626.50 L 555.50 622.70 L 551.20 618.40 L 547.40 613.70 L 544.10 608.70 L 541.30 603.30 L 539.10 597.60 L 537.80 593.20 L 536.30 583.90 L 536.10 579.00 L 536.80 569.40 L 539.10 560.40 L 541.30 554.70 L 544.10 549.30 L 547.40 544.30 L 551.20 539.60 L 555.50 535.30 L 560.10 531.50 L 565.20 528.20 L 570.60 525.40 L 576.30 523.20 L 580.70 521.90 L 590.00 520.40 L 594.90 520.20 L 604.50 521.00 L 613.50 523.20 L 619.20 525.40 L 624.60 528.20 L 629.60 531.50 L 634.30 535.30 L 638.50 539.60 L 642.40 544.30 L 645.70 549.30 L 648.50 554.70 L 650.70 560.40 L 652.00 564.80 L 653.50 574.10 L 653.70 579.00 Z" fill="#ffffff" fill-rule="nonzero" group-id="1,10" id="椭圆_29" node-id="30" stroke="none" target-height="117.599976" target-width="117.60004" target-x="536.1" target-y="520.2"></path></g></svg>