<?xml version="1.0" standalone="no"?><!DOCTYPE svg PUBLIC "-//W3C//DTD SVG 1.1//EN" "http://www.w3.org/Graphics/SVG/1.1/DTD/svg11.dtd"><svg t="1751627122368" class="icon" viewBox="0 0 1024 1024" version="1.1" xmlns="http://www.w3.org/2000/svg" p-id="8093" xmlns:xlink="http://www.w3.org/1999/xlink" width="200" height="200"><path d="M0 0h1024v1024H0z" fill="#FFFFFF" fill-opacity="0" p-id="8094"></path><path d="M974.72 315.328A465.28 465.28 0 0 1 230.4 847.552a46.528 46.528 0 0 1 64.512-67.136 372.352 372.352 0 0 0 595.456-425.728 372.288 372.288 0 0 0-683.2 19.328l63.104 5.312a23.296 23.296 0 0 1 17.152 36.48L163.584 593.984a46.336 46.336 0 0 1-41.6 19.776 41.6 41.6 0 0 1-35.776-26.88L12.864 391.04a23.296 23.296 0 0 1 23.744-31.424l74.496 6.272a465.344 465.344 0 0 1 863.68-50.56z m-444.992-82.56c24.32 0 44.608 18.752 46.4 43.008l0.128 3.52V508.16l139.52 79.808c21.056 12.032 29.312 38.336 18.944 60.288l-1.664 3.2a46.528 46.528 0 0 1-60.288 19.008l-3.2-1.728L518.272 582.4a69.76 69.76 0 0 1-35.008-56l-0.128-4.672V279.296c0-25.728 20.8-46.592 46.528-46.592z" fill="#323333" p-id="8095"></path><path d="M974.72 315.328A465.28 465.28 0 0 1 230.4 847.552a46.528 46.528 0 0 1 64.512-67.136 372.352 372.352 0 0 0 595.456-425.728 372.288 372.288 0 0 0-683.2 19.328l63.104 5.312a23.296 23.296 0 0 1 17.152 36.48L163.584 593.984a46.336 46.336 0 0 1-41.6 19.776 41.6 41.6 0 0 1-35.776-26.88L12.864 391.04a23.296 23.296 0 0 1 23.744-31.424l74.496 6.272a465.344 465.344 0 0 1 863.68-50.56z m-444.992-82.56c24.32 0 44.608 18.752 46.4 43.008l0.128 3.52V508.16l139.52 79.808c21.056 12.032 29.312 38.336 18.944 60.288l-1.664 3.2a46.528 46.528 0 0 1-60.288 19.008l-3.2-1.728L518.272 582.4a69.76 69.76 0 0 1-35.008-56l-0.128-4.672V279.296c0-25.728 20.8-46.592 46.528-46.592z" fill="#323333" p-id="8096"></path></svg>